<svg width="240" height="172" viewBox="0 0 240 172" fill="none" xmlns="http://www.w3.org/2000/svg">
<path fill-rule="evenodd" clip-rule="evenodd" d="M206.5 37.5C205.8 38.9 205 40 203.4 40.5C202.6 40.7 201.8 41.3 201.7 42.3C201.033 42.3 200.7 42.6334 200.7 43.3C200.1 43.5 199.2 42.8 198.9 43.9C200.2 44.3 200.2 44.3 200.7 43.3C201.367 43.3 201.7 42.9667 201.7 42.3C202.167 42.3 202.633 42.3 203.1 42.3C203.433 42.0334 203.767 41.7334 204.1 41.4C204.7 42 205.3 42.5 205.8 43.1C206.1 43 206.3 43 206.5 42.8C207.633 41.6667 208.733 40.5334 209.8 39.4C211.4 39.7 211.8 38 212.9 37.5C213.6 37.8 214.9 36.9 215.2 38.6C214.3 40.4 212.3 41.3 211.3 43C211.367 43.3333 211.433 43.6667 211.5 44C212.1 44.6 213 44 213.6 44.3C214 43.9 214.4 43.6 214.7 43.3C215.5 43.3 216.3 43.3 217.1 43.3C218.4 42.6 219.8 42 221.1 41.4C221.5 41.2 222 41.4 222.6 41.5C222.7 41.9 223 42.6 222.8 42.8C222.1 43.5 221.3 44 220.9 44.4C220.8 46.2 221.7 46.8 222.8 47.1C222.8 47.5667 222.8 48.0333 222.8 48.5C222.467 48.9 222.133 49.2667 221.8 49.6C221.8 49.9333 221.8 50.2333 221.8 50.5C221.1 51.2 220.4 51.8 219.8 52.5C219.2 53.2 218.3 53.9 218.1 54.7C217.8 55.9 216.7 56.4 216.1 57.2C215.5 57.9 214.9 58.7 214.1 59.2C213 59.7 213.6 61 212.7 61.5C212.433 61.5 212.133 61.5 211.8 61.5C211 63 210.2 64.4 210.1 66.3C209.367 66.3 208.633 66.3334 207.9 66.4C206.6 67.4 206.2 68.9 205.5 70.2C205.033 70.2 204.567 70.2 204.1 70.2C202.033 72.2667 199.967 74.3334 197.9 76.4C197.8 76.5 197.8 76.7 197.8 76.9C196.8 77.1 196.2 77.8 196.1 78.8C195.5 78.9 194.7 78.8 195.4 79.7C195.6 79.4 195.8 79.2 196.1 78.8C196.5 78.8 197 78.8 197.8 78.8C197.8 78 197.8 77.5 197.8 76.9C198.267 76.9 198.767 76.9 199.3 76.9C201.367 74.8334 203.433 72.7333 205.5 70.6C205.6 70.5 205.5 70.3 205.5 70.2C206 70.2 206.5 70.2 207.1 70.2C208 69.2 208.9 68.2 209.7 67.3C210.2 67.3 210.5 67.3 210.9 67.3C211.1 66.7667 211.3 66.2333 211.5 65.7C212.1 65.1 212.9 65.5 213.3 65.4C214.1 65 214.6 64.7 215.1 64.4C215.1 64.9 215.1 65.4 215.1 66C214.5 66.5 213.8 67.1 213.2 67.7C213.3 68.6 213 69.4 213.6 70.2C215.1 68.8 216.3 67.1 217.9 66C219.6 64.9 221.1 63.8 222.3 62.4C222.9 62.5 223.2 62.6 223.5 62.7C224 63.2 223.7 63.8 223.8 64.4C223.133 64.4 222.8 64.7334 222.8 65.4C222.1 65.3 221.8 65.7 222 66.3C221.4 66.4 220.6 66.4 221.3 67.2C221.5 66.9 221.7 66.7 222 66.3C222.2 66.3 222.5 66.3 222.8 66.3C223.1 67 223.5 67.6 223.8 68.1C223.7 69.6 222 69.8 222 71.1C221.4 71.2 220.6 71.2 221.3 72C221.5 71.7 221.7 71.5 222 71.1C222.3 71.1 222.8 71.1 223.4 71.1C225.9 68.6 228.4 66 230.9 63.5C231.6 63.4 232.3 63.3 232.4 64.2C232.4 64.8 232.4 65.4 232.4 66.1C231.8 66.2 231.4 66.3 230.9 66.4C230.5 67.2 230.1 68.1 229.6 69.1C230.9 69.1 231.9 69.1 232.9 69.1C233.3 68.8333 233.633 68.5667 233.9 68.3C234.6 68.9 234.2 69.6 234.5 70.1C233.9 70.3 233.1 70.2 233.8 71C234 70.8 234.2 70.5 234.5 70.1C235.5 70 235.9 68.7 236.9 68.2C237.6 68.4 238.5 67.9 239.1 68.7C238.433 69.3667 237.8 70.0333 237.2 70.7C237.2 71.4 237.1 72.1 238.1 72.1C238.9 72.1 239.2 72.5 239.1 73.5C236 76.6 232.8 79.9 229.5 83.1C226.6 84.3 224.9 86.8 222.9 88.9C221.6 90.2 219.9 90.5 218.8 91.9C217.7 93.3 216.5 94.8 215 95.6C213.5 96.4 212.5 97.9 211 98.6C209.6 99.3 208.7 100.7 207.4 101.3C205.6 102.2 204.4 103.5 203.1 104.8C202.8 105 202.6 105.4 202.4 105.4C200.8 105.5 200.2 107.1 199 107.6C198.7 107.7 198.3 107.7 198.1 107.9C197.3 108.8 196.3 109.5 195.1 109.9C193.4 112.1 190.4 113 188.7 115.3C188.6 115.4 188.1 115.3 187.8 115.3C186.5 116.5 185.5 118.2 184 118.9C182.5 119.6 181.7 121 180.3 121.7C179.2 122.2 178.3 122.9 177.4 123.7C176.3 124.6 175.1 125.3 174.1 126.1C173.1 127 172.3 128 171.3 128.8C170.5 129.5 169.5 129.9 168.7 130.5C167.7 131.4 166.9 132.3 166 133.2C165.2 134 164.5 135 163.6 135.6C159.5 138 156.6 141.9 153.2 145.1C152.5 145.8 151.5 145.8 150.9 146.4C150.1 147.2 149.3 148 148.5 148.8C147.8 149.5 147.2 150.2 146.6 150.8C146.1 150.8 145.8 150.8 145.5 150.8C143.567 152.733 141.667 154.667 139.8 156.6C139.467 156.6 139.133 156.6 138.8 156.6C136.667 158.733 134.533 160.867 132.4 163C131.7 163.7 130.9 164.3 130.4 165.1C129.7 166.1 128.4 166 127.7 166.7C127 167.4 126.6 168.4 125.4 168.1C124.9 169.1 123.8 168.9 123.1 169.4C122.9 169.5 122.8 169.7 122.5 169.9C121 169.9 119.3 169.9 117.7 169.9C117.4 170.3 117.1 170.6 116.8 170.9C116 170.9 115 170.9 114.9 170.9C113.3 171.1 113.1 172.3 111.4 171.5C111 171 110.1 169.9 109.4 169C108.4 169 107.7 169 107.1 169C106 168 106.9 167.4 107.6 166.7C107.6 166.1 107.6 165.4 107.6 164.9C107.8 164.2 108.7 164.1 108.6 163.3C109.267 163.3 109.567 162.967 109.5 162.3C110.167 162.367 110.5 162.067 110.5 161.4C111.167 161.4 111.467 161.067 111.4 160.4C114.3 158.2 114.3 158.2 114 157.6C112.7 157.1 112.2 158.4 111.4 159C111.4 159.467 111.4 159.933 111.4 160.4C110.8 160.4 110.5 160.733 110.5 161.4C109.833 161.333 109.5 161.633 109.5 162.3C108.833 162.3 108.533 162.633 108.6 163.3C108.067 163.3 107.567 163.3 107.1 163.3C107 163.1 106.8 162.7 106.9 162.6C107.9 161.5 108 159.7 109.6 159.1C109.2 158.6 108.9 158.3 108.4 157.7C108.733 157.167 109.067 156.6 109.4 156C109.3 155.8 109.2 155.6 109 155.6C107.133 155.6 105.233 155.6 103.3 155.6C102.7 153.7 102.7 153.7 103.7 152.3C103.3 151.3 102.4 152 101.3 151.7C101 152.2 100.7 152.9 100.3 153.6C100.167 153.467 100.033 153.367 99.9 153.3C99.9 153.6 99.9 153.9 99.9 154.3C99.5 154.4 99.1 154.6 98.7 154.7C96.5 157 94.2 159.2 92.1 161.3C90.5 161.3 89.3 161.3 88 161.3C87.3 160.3 85.7 160.6 85 159.5C83.8 161.2 81.5 161.5 80.3 163.3C79.9667 162.967 79.6333 162.633 79.3 162.3C78.7 162.9 78.1 163.5 77.5 164.1C76.6 164.1 75.7 164.1 75.1 164.1C73.8 164.6 73.2 166.1 71.8 165.3C71.4 165 71.1 164.6 70.7 164.4C70.1 163.9 70.3 163.3 70 162.7C69.9 162.4 69.5 162.1 69.3 161.8C69.6 161.5 69.8 161.2 70.1 160.9C69.7 160.5 69.3 160.1 68.9 159.6C68.4 159.8 68 160.1 67.3 160.5C66.9 160.3 66.4 159.9 65.7 159.5C65 159.5 64 159.5 63.1 159.5C62.6333 159.033 62.1667 158.6 61.7 158.2C61.5 157.1 61.2 156 62.5 155.1C62.5 153.9 62.5 152.5 62.5 151.2C62.9 150.8 63.2 150.6 63.5 150.3C63.1 150.1 62.7333 149.933 62.4 149.8C60.8 150.5 60.3 152.2 58.7 152.8C57.5 153.2 56.3 153.9 54.9 154.6C54.1 154.6 52.9 154.6 51.8 154.6C50.5 155.3 49.3 156.4 47.8 156.5C46.3 156.6 45.2 158.6 43.5 157.3C42.6 156.1 44 155.7 44.3 154.8C44.2 154.5 44 154.1 43.8 153.6C43.5 153.9 43.3 154.2 43.1 154.4C42.8 154.5 42.5 154.6 42.2 154.6C40.8 154.7 39.4 154.6 38 154.6C37.2 153.9 37.7 153.1 37.5 152.3C37.8333 151.967 38.1667 151.633 38.5 151.3C38.0333 150.833 37.5667 150.367 37.1 149.9C36 150.4 35.7 152 34.1 151.8C33.4 152.6 32.6 153.5 31.7 154.1C30.9 154.8 29.9 155.1 29 155.6C28.5 155.9 27.9 156.1 27.1 156.6C25.2 156.6 23 156.6 20.8 156.6C20.0667 157.267 19.3667 157.9 18.7 158.5C16.8 158.2 15.6 159.5 13.6 160.3C12.9 160.3 11.6 160.3 10.2 160.3C9.90001 160.1 9.39999 159.6 8.89999 159.2C8.83333 158.467 8.73334 157.7 8.60001 156.9C7.60001 156.2 6.49999 156.7 5.39999 156.6C5.06666 156.267 4.73333 155.933 4.39999 155.6C4.09999 155.9 3.7 156.2 3.5 156.4C2.6 155.6 1.80001 154.9 1.10001 154.2C1.10001 153.5 1.10001 152.8 1.10001 152.2C1.30001 152 1.59999 151.7 1.89999 151.4C1.89999 150.3 1.89999 149 1.89999 147.8C2.19999 147.4 2.49999 147 2.89999 146.5C2.89999 145.9 2.89999 145.2 2.89999 144.3C2.79999 144.4 0.399994 145.9 0.399994 145.9C-0.300006 145.2 0.4 144.3 0 143.7C0.4 143.3 0.700006 142.9 1.10001 142.6C1.10001 141.933 1.10001 141.267 1.10001 140.6C2.60001 139.7 3.09999 138 3.89999 136.6C4.39999 135.7 4.50001 134.4 5.20001 133.8C6.70001 132.5 6.90001 130.4 8.60001 129.4C8.60001 128.333 8.60001 127.267 8.60001 126.2C7.50001 125.8 6.49999 125.5 5.89999 124.4C5.89999 122.5 5.89999 120.6 5.89999 118.6C7.79999 117.4 8.00001 115.1 9.20001 113.4C9.53335 113.4 9.83334 113.4 10.1 113.4C11.2 112.5 10.4 111.3 10.7 110.2C11.7 109.3 12.7 108.3 13.5 107.6C13.5 106.8 13.4 106.3 13.6 106.2C14.5 105.7 14.3 104.5 14.9 103.8C15.7 102.9 17 102.1 17.3 101C17.6 99.7 19.3 99.4 19.3 98C19.3 96.6 21.2 96.4 21.3 95C21.3 93.7 23.3 93.5 23.2 91.9C23.1 91.7 23.5 91.4 23.7 91.2C24.8 90 26.3 89.1 26.9 87.7C27.5 86.3 28.9 85.7 29.4 84.4C30.7 81.4 33.7 79.9 35.6 77.2C35.6 77.1 35.6 76.8 35.6 76.4C40.8 71.2 45.9 66 51.2 60.9C52.7 59.4 54.8 58.5 56.2 56.8C57.8 55 59.6 53.4 61.3 51.7C62.9 50.1 64.3 48.4 66.1 47C67.8 45.6 68.4 43.3 70.1 41.9C71.7 40.5 73.1 39 74.5 37.5C74.7 37.3 74.9 37 75 36.7C75.5 34.8 77.3 34 78.8 33.1C78.8 32.8 78.9 32.5 78.9 32.3C79.7 31.4334 80.4667 30.6334 81.2 29.9C81.6 29.8 81.9 29.8 82.2 29.8C83 28.8 82.9 27.1 84.8 26.9C85.6 26.8 86.4 26 86.5 24.9C86.5 24.7 86.7 24.2 86.9 24.2C88.7 24 89.6 22.9 89.6 21.2C90.2 21.2 90.5 21.2 90.8 21.2C91.2667 20.7333 91.7333 20.2667 92.2 19.8C92.2 19.5334 92.2 19.2 92.2 18.8C92.8667 18.4667 93.5333 18.1667 94.2 17.9C94.2 17.5 94.2 17.2 94.2 17.2C95.8 15.6 97.2 14.1 98.7 12.6C99.1 12.4667 99.5 12.3333 99.9 12.2C99.9 11.8 99.9 11.5 99.9 11.2C100.6 10.4 101.9 10.4 102.6 9.5C103.3 8.5 104.4 7.70001 105.2 6.70001C106 6.00001 107.2 5.50001 106.6 4.20001C107.9 3.70001 109.3 4.4 109.9 3C110.233 3.26667 110.567 3.56669 110.9 3.90002C111.5 3.10002 112.5 3.10001 113.2 2.60001C113.8 2.20001 114.3 1.6 114.8 1C115 1.3 115.2 1.4 115.2 1.5C115.3 1.8 115.3 2.1 115.3 2.5C115.9 2.8 116.6 3.1 117.4 3.5C116.7 4.9 116.3 6.30002 115.1 7.40002C112.367 10.1334 109.667 12.8667 107 15.6C106.7 15.9 106.7 16.4 106.4 17.1C105.6 17.9 104.6 18.9 103.6 19.9C102.6 20.9 101.5 21.9 100.6 23C99.8 24.1 99.3 25.4 98.2 26.3C97.1 27.3 96.1 28.3 95.1 29.4C95.1 29.7 95.1 30 95.1 30.5C94.3 31 93.5 31.6 92.4 32.3C92.4 32.5 92.2 32.9 92.1 33.5C91.7 33.5 91.3 33.7 90.7 33.8C90.6 34 90.4 34.4 90 35.4C89.4 35.9 88.2 36.8 87.4 37.4C87.4 38.5 87.4 39 87.4 39.4C86.8 39.4 86.5 39.7334 86.5 40.4C85.8333 40.4 85.5 40.7334 85.5 41.4C84.9 41.3 84.5 41.7 84.7 42.3C84.1 42.4 83.3 42.4 84 43.2C84.2 42.9 84.4 42.7 84.7 42.3C85.2 42.4 85.6 42 85.5 41.4C86.1667 41.4 86.5 41.0667 86.5 40.4C87.1667 40.4 87.4667 40.0667 87.4 39.4C87.6 39.4 87.8 39.5 87.9 39.4C92.7667 34.6 97.6 29.7667 102.4 24.9C102.7 24.6 102.8 24.1 103 23.4C104.4 22 105.7 20.1 107.6 19C109.7 17.7 111.2 16 112.9 14.5C113.367 14.5 113.833 14.5 114.3 14.5C113.6 15.6 113.2 16.9 112.5 18C112.2 18.4 112.3 19.3 113.3 19.3C113.4 19.3 113.6 19.4 113.7 19.3C115.5 17.3 117.4 15.4 119 13.6C120.5 13.6 121.6 13.6 122.6 13.6C122.9 13.9 122.6 14.4 121 16.2C121.1 16.5 121.2 16.9 121.4 17.3C122 17 122.5 16.7 123 16.4C122.9 17 123.2 17.3 123.7 17.4C124.3 17.4 125 17.3 124.9 16.4C125.2 16.3 125.6 16.2 125.6 16.1C125.8 15.5 125.4 15.4 124.9 15.4C125 15.3 127.5 13.5 127.6 13.5C128.5 13.6 129.4 13.6 130.3 13.7C130.5 13.7 130.5 14.2 130.8 14.4C130.2 14.6 129.4 14.5 130.1 15.4C130.3 15.1 130.5 14.8 130.8 14.4C131.7 14.4 132 13.3 132.8 12.8C133.4 12.4 134.2 12.5 134.8 11.8C135.2 11.5 136 11.6 136.8 11.5C137.9 10.3 139.2 8.90001 140.3 7.70001C142.1 7.90001 142.6 6.8 143.4 6C144.2 5.3 144.9 4.60001 146 4.70001C146 4.00001 146 3.70002 146 3.40002C147 2.90002 147.9 2.50002 149 1.90002C149.4 2.20002 149.9 2.5 150.5 3C151.1 2.4 151.7 1.6 152.2 1C152.7 1.1 153 1.10001 153.5 1.20001C153.633 2.00001 153.767 2.86668 153.9 3.80002C154.9 3.50002 155.3 2.70001 156 2.10001C156.7 1.50001 157.3 0.7 158 0C159 2.2 159.3 2.40002 161.3 3.40002C160.2 4.10002 160.5 5.70002 159.4 6.40002C158.3 7.10002 158.4 8.60002 157.4 9.40002C156.4 10.2 155.5 11.2 154.6 12.1C154.6 12.6 154.6 13.1 154.8 13.5C154.2 13.6 153.4 13.6 154.1 14.4C154.3 14.1 154.5 13.9 154.8 13.5C155.7 13.4 156.1 12.4 157 11.7C157.9 11.6 159 11.6 160 11.5C160.7 10.9 160.2 10 160.4 9.20001C161.8 8.90001 162.7 7.80002 163.7 6.90002C164.8 6.80002 165.9 6.60001 166.9 7.10001C166.8 7.90001 166.1 8.20001 165.6 8.70001C165.3 8.70001 165 8.70001 164.6 8.70001C164.4 9.30001 164.2 9.80001 164.1 10.1C163 10.8 162.2 11.4 161.3 11.9C161.5 12.8 161.1 13.7 161.8 14.6C162.4 14 162.8 13.4 163.4 12.9C164.1 12.4 165.2 12.5 165.7 11.6C166.2 10.9 166.8 10.2 167.4 9.90002C168.3 9.60002 169.2 9.3 169.7 8.5C170.2 7.8 171 7.90001 171.7 7.60001C171.833 7.13334 171.933 6.66668 172 6.20001C172.7 5.50001 173.6 6.10002 174.2 5.80002C174.6 6.20002 175 6.50002 175.3 6.80002C175.6 6.50002 176 6.20002 176.4 5.80002C176.6 6.30002 176.7 6.70002 176.7 6.90002C175.8 9.30002 173.2 9.40001 171.9 11.2C172.7 12 173.6 11.3 174.5 11.8C174.8 12 175.3 12.4 175.8 12.8C178.2 10.6 181.2 9.4 182.4 7.5C183.8 6.7 184.4 6.3 185 6C185.7 7 185.2 8.10002 185.4 9.30002C185 9.40002 184.6 9.6 183.6 10C182.5 11.1 181 12.6 179.5 14.1C179.7 14.6 179.8 14.9 179.9 15.3C180.1 15.2 180.4 15.1 180.5 15C181 14.6 181.4 14.1 181.9 13.6C182.833 13.6 183.767 13.6 184.7 13.6C185.1 13.3 185.4 13 185.9 12.6C186.433 12.6 187.033 12.6 187.7 12.6C188.033 12.8667 188.367 13.1667 188.7 13.5C189.9 12.1 191.5 11.3 193.4 10.6C193.6 10.9 193.9 11.2 194.2 11.7C193.5 12.6 192.8 13.4 192.1 14.2C192 16.1 193.7 16.1 194.9 16.8C194.7 17.7 193.9 17.2 193.2 17.6C193.1 18.3 193 19.2 192.8 20.1C192.3 19.9 191.9 19.7 191.2 19.4C191.2 20.1 191.1 20.7 191.1 21.3C191.1 21.4 191.2 21.7 191.1 21.7C189 23.6 187.4 26.1 184.5 27.5C184.5 27.6 184.4 28 184.3 28.5C183.1 29 181.8 29.6 181.2 30.8C180.7 30.8 180.4 30.8 179.9 30.8C179.4 33.4 177.4 35.1 176.3 37.4C176 38.1 175.3 38.5 174.4 38.6C173.8 38.7 173.4 39.6 172.9 40.2C172.8 40.4 173 40.8 173.1 41.3C174.2 39.9 175.9 40.7 177.1 39.7C178.2 38.8 179.7 38.4 181.1 37.7C181.6 38 182.2 38.3 182.8 38.7C183.5 37.9 184.1 37.4 184.8 36.6C185.3 36.6 185.9 36.6 186.8 36.5C187.4 36.4 188 34.7 189.2 36.1C189.2 36.4 189.3 36.9 189.2 37C188.3 38 187.4 38.9 186.4 39.8C186.4 40.5334 186.4 41.3 186.4 42.1C186.9 42.2 187.4 42.3 187.9 42.4C188.1 41.8 188.3 41.2 188.5 40.5C189.1 40.5 189.7 40.4 190.8 40.3C191.6 40.2 191.8 38.4 193.3 38.4C193.8 38.5 194.3 37.8 194.9 37.6C195.1 37.4 195.5 37.5 195.8 37.5C196.1 37.6 196.4 37.7 196.8 37.8C196.8 38.2 196.8 38.6 196.8 39C196.1 39.8 195.3 39.3 194.3 39.5C193.6 40.3 192.8 41.5 191.8 42C190.8 42.6 189.8 42.9 189.2 44C189.2 44.1 189.2 44.5 189.2 44.8C189.5 44.8 189.9 45 189.9 44.9C190.6 44 191.9 44.3 192.6 43.3C193.3 42.5 194.3 42.1 195.2 41.6C196.2 41.1 197.3 41 198.1 40.4C199.4 39.3 200.7 38.4 202.5 37.5C203.6 37.5 205.1 37.5 206.5 37.5ZM11 128.7C10.5 130 9.99999 131.2 9.39999 132.4C8.69999 133.5 8.10001 134.7 7.10001 135.8C6.60001 136.3 6.29999 137.3 5.89999 138.1C5.69999 138.4 6.10001 138.9 6.20001 139.4C7.10001 138.5 7.90001 137.7 8.70001 136.9C8.70001 136.567 8.70001 136.267 8.70001 136C9.36668 135.267 10.0333 134.567 10.7 133.9C10.4 132 11.8 130.6 12.4 128.9C12 128.8 11.5 128.8 11 128.7ZM193.6 82C192.7 81.8 192.3 81.8 192.2 81.7C191.3 82.3 190.7 82.6 189.6 83.3C190.5 83.5 190.9 83.5 191 83.6C191.9 83 192.6 82.7 193.6 82Z" fill="#7D5E4C"/>
<path d="M39.3999 68.2C39.3999 68.7334 39.3999 69.2334 39.3999 69.7C38.0666 71.0334 36.7333 72.4 35.3999 73.8C33.9999 75.1 32.2999 76.3 31.3999 77.9C30.4999 79.5 28.9 80.5 28.7 82.4C28.0333 82.6667 27.4666 82.8667 26.9999 83C26.9999 83.5 26.9999 83.8 26.9999 84.1C25.8999 85.4 24.3999 86.3 23.7999 88.1C23.3999 89.5 21.1 89.9 21.2 91.8C20.1 92.5 19.6999 93.9 18.2999 94.2C17.9999 92.6 19.4 91.7 19.7 90.4C21.8 88.8 22.5999 86 24.7999 84.4C25.4999 81.6 28.2999 80.5 29.7999 78.2C29.7999 78 29.7999 77.7 29.7999 77.3C32.5999 74.5 35.4333 71.7 38.2999 68.9C38.5999 68.6 38.7999 68.1 39.3999 68.2Z" fill="#7D5E4C"/>
<path d="M18.3001 94.1C18.8001 95.5 17.4001 96.3 17.2001 97.6C17.1001 98.3 15.7001 98.9 15.5001 99.7C15.3001 101 13.9001 101.3 13.7001 102.3C13.5001 103.4 12.8001 103.9 12.3001 104.6C11.8001 105.2 11.5001 105.9 11.2001 106.6C10.7001 107.9 9.60008 108.8 8.90008 109.9C8.20008 111 7.80009 112.4 7.10009 113.5C6.70009 114.1 7.00009 115 6.20009 115.5C5.80009 115.8 5.70008 116.6 5.50008 117.4C4.80008 116.2 4.60007 115.4 5.30007 114.4C5.90007 113.5 6.30007 112.6 6.80007 111.6C7.20007 110.7 7.40009 109.6 8.10009 108.8C8.80009 108 8.60009 106.7 9.70009 106.1C9.80009 106 9.70009 105.5 9.70009 105.2C10.6001 104.3 11.5001 103.4 12.5001 102.4C12.1001 101 13.3001 99.9 13.7001 98C14.1001 97.7 15.0001 96.9 15.8001 96.2C16.6001 95.5 17.1001 94.4 18.3001 94.1Z" fill="#7D5E4C"/>
<path d="M215.1 64.5C215.1 63.8 215.2 63.3 215.2 62.7C216.3 62.6 216.3 63.7 217 63.7C216.6 64.9 215.7 64.2 215.1 64.5Z" fill="#7D5E4C"/>
<path d="M206.5 37.6C206.6 36.6 207.3 36.1 208.3 35.6C208.3 36.2 208.3 36.7 208.4 37.4C207.6 37.5 207.1 37.5 206.5 37.6Z" fill="#7D5E4C"/>
<path d="M41.3999 66.3C41.1332 67.3667 40.4666 68 39.3999 68.2C39.4999 67.7 39.4999 67.1 39.4999 66.3C40.1999 66.3 40.7999 66.3 41.3999 66.3Z" fill="#7D5E4C"/>
<path d="M123 16.4C123.2 16.1 123.3 15.6 123.6 15.5C124 15.3 124.5 15.4 124.9 15.4C124.9 15.7333 124.9 16.0667 124.9 16.4C124.233 16.4 123.6 16.4 123 16.4Z" fill="#7D5E4C"/>
<path d="M177.8 5.10001C178.2 5.00001 178.7 4.90002 179.1 4.90002C179.2 4.90002 179.4 5.3 179.4 5.5C179.5 5.6 179.2 5.80002 179.1 5.80002C178.7 5.80002 178.3 5.70001 177.8 5.70001C177.8 5.50001 177.8 5.30001 177.8 5.10001Z" fill="#7D5E4C"/>
<path d="M114.1 14.6C114.4 14.1 114.7 13.9 114.9 13.6C115.5 14.5 114.8 14.4 114.1 14.6Z" fill="#7D5E4C"/>
<path d="M63.1 46.3C63.2333 46.4334 63.3333 46.5333 63.4 46.6C63.2 46.8 63 46.9 62.8 46.9C62.7 47 62.6 46.8 62.5 46.6C62.7 46.5333 62.9 46.4334 63.1 46.3Z" fill="#7D5E4C"/>
<path d="M222.5 47.2C222.9 46.8 223.2 46.5 223.4 46.3C224 47.1 223.3 47 222.5 47.2Z" fill="#7D5E4C"/>
<path d="M61.2001 49.2C61.3334 49.3333 61.4334 49.4333 61.5001 49.5C61.3001 49.6 61.1001 49.8 60.9001 49.8C60.8001 49.8 60.7001 49.6 60.6001 49.5C60.8001 49.4333 61.0001 49.3333 61.2001 49.2Z" fill="#7D5E4C"/>
<path d="M58.8 51.3C58.9334 51.1667 59.0334 51.0667 59.1001 51C59.2001 51.2 59.4001 51.4 59.4001 51.6C59.4001 51.7 59.2001 51.8 59.1001 51.9C59.0334 51.7 58.9334 51.5 58.8 51.3Z" fill="#7D5E4C"/>
<path d="M47.8 60.7C48.2 60.2 48.4001 60 48.7001 59.7C49.3001 60.5 48.6 60.5 47.8 60.7Z" fill="#7D5E4C"/>
<path d="M48.3999 60.5C47.9999 60.9 47.6999 61.2 47.4999 61.4C46.8999 60.6 47.5999 60.7 48.3999 60.5Z" fill="#7D5E4C"/>
<path d="M223.8 64.4C224.2 64.4 224.7 64.5 224.5 65C224.5 65.2 224 65.3 223.8 65.4C223.8 65.0667 223.8 64.7334 223.8 64.4Z" fill="#7D5E4C"/>
<path d="M41.1001 66.4C41.5001 66 41.7001 65.7 41.9001 65.5C42.6001 66.3 41.8001 66.2 41.1001 66.4Z" fill="#7D5E4C"/>
<path d="M223.8 65.4C223.8 66.0667 223.467 66.3667 222.8 66.3C222.8 65.9667 222.8 65.6667 222.8 65.4C223.133 65.4 223.467 65.4 223.8 65.4Z" fill="#7D5E4C"/>
</svg>
